<?xml version="1.0" encoding="UTF-8"?>
<svg id="Layer_1" xmlns="http://www.w3.org/2000/svg" version="1.1" viewBox="0 0 1024 1024">
  <!-- Generator: Adobe Illustrator 29.6.0, SVG Export Plug-In . SVG Version: 2.1.1 Build 207)  -->
  <defs>
    <style>
      .st0 {
        fill: #3d3667;
      }

      .st1 {
        fill: #e2c99e;
      }
    </style>
  </defs>
  <path class="st0" d="M696.4,220.7c32.6-41,81.7-76.6,133-89.8,30.5-7.8,63.4-7.3,93.2-17.3,22.2-7.4,60.1-36.7,79-9,15,21.9-5.2,46.9-12.8,67-11.4,30.2-3.9,58-4.1,88.8-.2,22.8-4.3,50.3-11.3,72.2-19,60.2-71.5,104.7-134.6,111.8-.8,11.2,1.1,23.7,0,34.7-.5,5.3-4.8,13.6-4.5,17.4.9,9.3,9.8,30.6,12.6,41.5,29.8,115.1,30.3,208.3-62.2,292.8-145.1,132.5-390.3,133.6-538.7,5.9-98.7-85-100.7-177.5-70.2-297.2,2.8-11,11.9-33.5,12.6-42.8s-4.1-13.7-4.6-19.9c-.9-9.5,0-21.2.9-30.6-.3-1.7-21.8-5.6-25.8-6.7-78.4-22.3-116.2-94.4-119.8-171.9-1.3-27.5,5.6-59.6-.5-85.3S2.8,122.7,25.5,100.8c19.4-18.8,43.1-.6,62.2,7.3,37.1,15.3,73.6,13.5,111.3,23.9,52.2,14.4,96.9,48.9,131.1,89.9,58-42.9,134.9-54.8,205.9-51.7,55.2,2.4,112.2,17.1,157,50l3.4.4h0ZM186.1,419.6v-17.1c0-5.4-16.1-9.3-20.4-11.3-21-10-39.2-21.8-54.9-39.2,4.8,0,9.8,4.8,14.1,7.1,14.2,7.5,29,12.9,44.1,18.2l.6-2.3c-3.8-.7-7.2-2.3-10.5-4.2-22.6-13.3-45.6-32.9-62.4-52.8-.9-3,7.8,5.1,8.5,5.6,17.2,11.8,37.8,23.4,57.3,30.9s6.7,3,9.4,2.4c-29.3-18.5-57-40.8-78.8-67.6l40.4,27.2c11.2,5.1,22.6,12,34.1,16.5,1.1.5,3.6,1.9,4.4.4-29.7-18.8-56.7-41.9-80-68.2,1.2-2,2.6.5,3.5,1.2,20,15.4,41.6,27.1,65.3,35.8,3.5.2,1-1.3-.2-2.1-24.1-16.1-47.9-33.3-66.3-56l25.1,16.1c12.2,5.5,25.3,13.8,38.4,16.9s3.8,1.5,3.6-.6c-13.8-7-28.3-17.4-40.5-27.1-9.4-7.4-21.2-17.3-28.8-26.4s-2.9-1.9-2.3-4.1c19.3,13.7,43,26.2,66.1,32.1,1.2.3,3.7,1.8,4.4.3-28.2-15.2-54.8-33.9-75.3-58.8-.2-.9,1.2-.8,1.7-.6,1.8.8,7.3,5.8,10.1,7.5,5.2,3.2,10.5,6.1,15.9,8.8l31,11.3c-20.6-13.4-40.2-27.3-56.4-45.9s-20.4-25.9-18.8-27.6c29,19.8,63.6,21,96.4,28.8,75.3,18,68.3,63.1,101.8,118.1,3.2,5.3,11.5,15,13.4,19.5s.2,2-.6,1.7c-13-6.6-22.5-17.8-32.3-28.2l17.6,37.6-24.7-17.6c2.2,3.6,13.4,27.6,11.8,29.4l-12.9-7,9.4,15.3c-5.2.5-12.4,2.4-16.5,5.9h558.7c.6-3.5-.9-1.9-2.8-2.5-3.7-1.3-7.6-2.3-11.4-3.4l7-14.1-11.7,4.7,8.2-23.5-22.3,15.3,15.3-34.1-14.1,13.5c-5.8,4.6-10.6,8.4-18,10.2-1.5.4-2.2,2.3-2-.8,37.8-32,36.4-90.2,74.9-120.4,35.3-27.7,88.1-20.3,129.4-41.1,4.4-2.2,7.7-5.5,12.1-7.3-17.3,31-45.1,55.3-75.3,73.5.8,1.6,3.2,0,4.3-.4,15.5-4.7,30.1-12.4,43.8-20.9s9.1-7.1,8.3-4.6c-17.9,23.6-42.7,43.2-69.4,55.9-.2,2.3,3.5.9,4.8.6,20.4-3.9,43.7-18.2,60.5-30,.8-.2.9,1.1.6,1.7-.7,1.6-14.6,14.8-17.1,17-12.4,11-28.3,22.5-41.8,32.3-2.1,1.5-9.4,3.7-7.6,6.6,22.7-7.6,42.1-18.3,60.6-33.5.9-.8,2.3-3.1,3.5-1.2l-28.2,28.2-41.2,31.1c4.6-.2,9.9-2.4,14.1-4.1,19.3-8,38.7-20.3,54.7-33.5.9-.2.8,1.2.6,1.7s-7,8.1-8.2,9.5c-6.9,7.6-18,17.8-25.9,24.7-13.7,11.9-28.8,22.3-43.5,32.9l17.3-6.3c21.1-10.1,40-23.8,58.6-37.8,1.9,1.2-.4,2.6-1.2,3.5-21.3,25.9-49.9,47.6-78.2,65.3.8,1.6,3.2,0,4.3-.4,26.4-10.3,51.4-24.2,73.9-41.4.9-.2.8,1.2.6,1.7-.7,1.5-16.2,16.6-18.8,18.9-17.1,15.3-37.7,28.7-57.6,40,.8,1.5,3.2,0,4.4-.3,14.4-3.7,35.1-12.9,48.1-20.1,2.2-1.2,4.5-4.9,6.2-3.2-11.7,12.4-25.3,24.3-40.4,32.6-5.1,2.8-32.5,12.5-32.5,15.7v18.2c48.6-2.3,95-43.3,111.8-87.6,18.7-49.5,7.4-89.6,10.5-138.9s11.2-35.7,19.4-57c2.2-5.6,8-20.7-2.3-21.3s-21.5,11.4-28,14.4c-35.4,16.8-74.3,14.1-111.4,23.9-46.1,12.1-81.6,41.2-109.2,79-12,16.5-22.5,34.4-32.6,52.1l5.3-36.5-22.9,32.9,5.3-30.6c-1.6-1.7-11.7,10.8-12.9,12.4-3.8,4.8-8.3,11.5-10.6,17-2.1.3-1.2-2.7-1-4,.9-8.8,5.1-19.4,8.1-27.8-3.1-2.4-27.1,22.7-29.4,27,3.3-15.7,11.8-33.4,26.3-41.1,1.4-.3.9-1.6,0-2.4-1.3-1.6-22.2-11.6-25.7-13.1-51.5-22-123.7-26.6-178.8-19.6-39.4,5-78.9,16.8-111.2,40.4l11.6,26.5-22.3-18.8,4.7,28.2-22.3-27.1,2.9,29.4c-28.8-50.8-60.5-96.7-117.6-117.6-41.8-15.3-88.1-11.8-128.1-29.5-7.6-3.4-20.4-12.9-26.6-14.6-7.1-1.9-11.1,3.8-10.6,10.5.7,9.1,13.6,28.6,17.3,39.2,12.2,35.1,2.6,73.7,5,110.3,1.3,20.2,7,45.2,15.1,63.7,17.8,40.9,62.6,78.7,108.4,80.4h.3ZM573.9,362.2c-9.4,1.9-16.8,10.6-26.1,11.5-11.6,1.1-71.2,1.3-79.4-1.8-6.2-2.4-11.7-9.3-19.4-8.9l-225.6.3c-12.2,4.2-21.2,14.8-22.9,27.7s-2.1,75.1,1.7,89.4c6.3,24.1,27.5,37.3,51.5,39.1,49.3,3.6,103.1-2.8,152.9,0,44.5-3,63.5-72.3,109.4-68.2,37.8,3.4,54.9,57.9,92.3,66.5,52.6.5,110.6,5.2,163,1.8,62.4-4,52.1-60.3,52.2-105.3s1.4-6.7,1.4-10.6c-.5-24.7-9.9-39.8-35.9-41.8l-215,.3h-.1ZM541.3,481.9c2.6-2.6-12-9.7-13.8-10.3-16.8-6-35-2.7-46.2,11.5,19.5-5.6,40.2-5.7,60-1.2ZM592.4,838.3c-7.6.4-15.3-.3-22.9,0l32.2-11.9c29.1-12.9,57.4-35.8,76.5-61.1,1.8-2.4,3.8-5.1,4.2-8.1,2.2-.3,1,2.5.6,3.6-10.7,29.3-34.6,53.4-57.1,74,20.8-8.9,40.1-25.1,54.1-43,6.9-8.9,11.6-19,18.9-27.6-10.6,27.1-27,53.6-48.2,73.6-1,.9-2.2,1.6-3.5,1.7l.6,2.3c28.5-15,49.4-42,60.6-71.7,2.1-.3,1.1,2.6.9,3.8-2.2,13.7-9.2,28.2-14.4,40.9l-13,22.3c15.1-14.2,26.9-30.5,35.3-49.4,4.6-10.3,7.5-21.3,11.8-31.7l-2.1,24.9-9.7,36.2c13.1-18,21.7-39.6,27.1-61.2,1.8-7.4,1.7-15.5,4.7-22.3,2.1,16.5-1,33.1-3.5,49.4l-5.9,21.1c18.9-27.8,27.5-62.9,27.7-96.4,1.7,0,1.8,4.2,2,5.6,2.7,17.2.9,34.1-1,51.2l-5.1,26.6c16.2-31.6,24.9-69.2,20.6-104.7,3.4-.6,1.9.7,2.5,2.7,6.8,23.7,3.7,56-2.5,79.6,3.1.6,2.1-.6,2.9-2.3,15.4-33.4,18.6-75.9,12.4-111.7l3.9,8.5c8.5,21.9,5.7,44.7,5.5,67.4,0,1.4-.8,4.4,1.2,4.1,9.7-35.5,10.4-71.1,2.4-107l6.4,13c6.4,17.2,9.8,35.6,8.9,54.1.2.3,1.5-.6,1.8-1.2,3.1-6.6,2.6-35.7,1.7-44.1-1.7-17.1-7-33.6-11.7-50,11.2,15.2,19.2,34.1,21.2,52.9,2.1.3,1.1-2.7,1.2-4.1,1.4-35.1-8.8-73.4-27.6-102.9.6,7.1,4.4,14,6.1,20.9s3.1,15.9,3.9,23.8l-11.3-19.9-14.6-17.7c5.8,14.5,11.4,28.9,12.9,44.7-3.8-4.9-5.5-10.9-8.9-16.4-5.6-9-13.1-16.3-21.6-22.4l10.6,21.7,4.7,23-13-20.6c-7-8.4-14.9-15.1-23.5-21.8-1,1.1,6.2,9.2,7.3,10.9,6.8,11.4,11.2,24.1,12.7,37.3-3.4.7-1.9-1-2.7-2.6-9.6-19.8-24-37.3-44.4-46.8,12.2,13.3,20.8,27.8,25.9,45.3-2.8,2.4-2.9-2.6-4.5-5-12.1-18.1-43.6-42.1-64.4-48.6-.6-.2-1.9-.3-1.7.6,8.2,8.2,17.1,17.4,23.3,27.3.6,1,2.5,3,.8,3.9-22.2-17.9-46.8-33.6-74.7-41.1,2.6,4.5,6.1,8.5,9,12.8.7,1,2.9,2.6,1,3.7-17.4-15.9-38.9-24-58.6-35.5-22.1-12.9-32.9-27-60.5-31.2-43.2-6.6-57.2,9.2-89.8,29.6-20.1,12.6-43.1,21-60.5,38.3-2.4-4,12.3-17.9,11.2-18.8-27.7,8.2-54,22-74.7,42.3-1.8-.9.3-2.8.8-3.9,5.8-10.6,13.1-20.4,22.1-28.5-4.8-.1-11.6,3-16.1,5.1-20.8,9.6-41.2,25.9-53.9,44.9l4.7-14.1c4.4-11.7,12.7-19.7,20.9-28.6s4-1.8.2-2c-22.1,11.3-41.3,29.3-50,52.9-2.1.2-1.3-4-1.1-5.3,1.5-14.7,10.9-29.6,18.8-41.8l-17.1,12.9-18.2,25.9c1.1-16.4,7.8-31.7,17.6-44.7l-15.9,12.9-14.7,22.4c1.6-15.2,5.7-30.1,12.9-43.5l-10.4,11.4-14.3,22.7c2.4-9.3,3.6-19.1,6.4-28.2s4.6-8.4,4.7-12.9c-22.9,32.5-29.9,76-30,115.2l8.5-28.5,7.9-15c-5.2,23.5-9.1,47-5.9,71.1l3.5,15.9c.3-14.7,1.8-29.4,5.1-43.8l7.9-19.7c-5.9,33.2-4.8,67.3,3.6,100,2.2.2.9-2.5.8-3.8-1.1-12.6-1.9-25.2-.8-38s1.7-13.2,2.9-19.4l4.1-12.9c-2.4,32.9-1.9,76.5,14.3,106.3.7,1.2,2.5,3.5,2.2.2-7.2-22.2-6.6-47.4-3.4-70.4.2-1.5.5-6.4,2.2-6.6-1.2,33.7,6,67.4,20.7,97.6.8,1.7-.3,3,2.9,2.3-8.1-24.6-10.1-53.6-6.9-79.2.2-1.4.5-6.4,2.2-6.6.1,35.3,6.4,74.9,28.2,103.5-6.9-21.4-11.5-43.8-10.6-66.5s-.9-4.4,1.2-4.1c4.1,34.2,18.2,66.4,38.2,94.1,1.6-.8-.2-3-.6-4.1-2.3-6.5-5.9-13.2-8.3-20s-13-46.4-8.8-46.5c8.6,26.3,21.3,55.6,40.6,75.9s2.3,3.1,3.5,1.2c-10-15.6-17.8-37-19.8-55.4s-1.2-6.3,1-6.3c9.5,31.8,29.3,60.1,54.7,81.1,1.9-1.2-.4-2.6-1.2-3.5-17.1-20.2-29.3-44.1-33.5-70.6l16.7,30.9c12.5,19.9,28.5,36.4,47.4,50.2,1.9-1.2-.4-2.6-1.2-3.5-4.4-5.2-9-9-13.3-14.9-9.9-13.4-25.8-42.9-29.4-58.9s-1.2-4.1.9-3.8c.6,3.2,1.8,6.2,3.3,9,13.7,25.5,33.1,50,56.1,67.4,3.7,1.2-6-8.3-6.5-8.8-7.7-9.9-16.1-23.9-21-35.5s-2.6-3-.8-3.9c21.8,29.5,49.5,53.7,83.5,68.2,2.6.3,2.1-.3.6-1.8-9.3-8.8-19.7-14.9-28.8-25.3-1.7-1.9-13.5-16.3-12.3-17.7,23.4,18.7,56.7,44.6,87.6,47.1.9,0,4.3.4,2.4-1.2-19.5-5.4-40-18.4-54.7-32.3s-8.3-7.5-7-8.8c27.9,16.8,59.3,30.2,92.3,31.8,1.9-1.4-1.1-1.3-2-1.5-19.6-4.7-38-11.7-53.9-24.3,21.1,6.2,42.4,13,64.7,12.9l-24.3-9.2-5.1-3.7c23.1,3.5,45-1.7,67-8.3-.7-3.3-6.6,0-7.6,0h0Z"/>
  <path class="st1" d="M186.1,419.6c-45.8-1.7-90.6-39.5-108.4-80.4s-13.8-43.6-15.1-63.7c-2.4-36.6,7.2-75.2-5-110.3-3.7-10.6-16.6-30.1-17.3-39.2-.5-6.7,3.5-12.4,10.6-10.5,6.2,1.6,19,11.2,26.6,14.6,39.9,17.7,86.3,14.2,128.1,29.5,57.1,21,88.8,66.8,117.6,117.6l-2.9-29.4,22.3,27.1-4.7-28.2,22.3,18.8-11.6-26.5c32.2-23.5,71.8-35.4,111.2-40.4,55.1-7,127.3-2.4,178.8,19.6,3.6,1.5,24.4,11.6,25.7,13.1s1.2,2.1,0,2.4c-14.5,7.7-23.1,25.4-26.3,41.1,2.3-4.3,26.3-29.4,29.4-27-3,8.4-7.2,19-8.1,27.8,0,1.3-1.1,4.2,1,4,2.3-5.6,6.8-12.2,10.6-17s11.3-14.1,12.9-12.4l-5.3,30.6,22.9-32.9-5.3,36.5c10.1-17.7,20.6-35.6,32.6-52.1,27.5-37.8,63.1-66.9,109.2-79,37.1-9.8,75.9-7.1,111.4-23.9,6.5-3.1,22.2-14.8,28-14.4,10.3.6,4.5,15.7,2.3,21.3-8.3,21.3-17.9,31.8-19.4,57-3.1,49.3,8.3,89.4-10.5,138.9-16.8,44.3-63.2,85.3-111.8,87.6v-18.2c0-3.2,27.5-12.9,32.5-15.7,15.1-8.2,28.7-20.2,40.4-32.6-1.7-1.7-4.1,2-6.2,3.2-13.1,7.2-33.8,16.4-48.1,20.1s-3.7,1.8-4.4.3c19.9-11.3,40.5-24.7,57.6-40,2.6-2.3,18.1-17.4,18.8-18.9s.3-1.9-.6-1.7c-22.5,17.1-47.5,31.1-73.9,41.4-1.1.4-3.6,1.9-4.3.4,28.4-17.7,56.9-39.4,78.2-65.3.8-.9,3.1-2.3,1.2-3.5-18.6,14-37.5,27.8-58.6,37.8l-17.3,6.3c14.8-10.6,29.8-21,43.5-32.9,7.9-6.8,19-17,25.9-24.7s7.9-8.9,8.2-9.5.3-1.9-.6-1.7c-16.1,13.2-35.4,25.5-54.7,33.5-4.2,1.7-9.5,3.9-14.1,4.1l41.2-31.1,28.2-28.2c-1.2-1.9-2.6.4-3.5,1.2-18.4,15.2-37.9,25.9-60.6,33.5-1.8-2.9,5.5-5.1,7.6-6.6,13.5-9.8,29.5-21.2,41.8-32.3s16.4-15.5,17.1-17,.2-2-.6-1.7c-16.8,11.8-40.1,26.1-60.5,30-1.2.2-4.9,1.7-4.8-.6,26.7-12.7,51.5-32.3,69.4-55.9.8-2.5-7.5,4.1-8.3,4.6-13.7,8.5-28.3,16.2-43.8,20.9s-3.5,2-4.3.4c30.2-18.2,58-42.5,75.3-73.5-4.4,1.7-7.7,5-12.1,7.3-41.3,20.9-94.1,13.5-129.4,41.1-38.4,30.1-37.1,88.4-74.9,120.4-.2,3.1.5,1.2,2,.8,7.4-1.8,12.2-5.7,18-10.2l14.1-13.5-15.3,34.1,22.3-15.3-8.2,23.5,11.7-4.7-7,14.1c3.8,1.1,7.6,2.2,11.4,3.4s3.4-1,2.8,2.5H231.9c4.1-3.5,11.3-5.4,16.5-5.9l-9.4-15.3,12.9,7c1.7-1.8-9.6-25.8-11.8-29.4l24.7,17.6-17.6-37.6c9.8,10.5,19.3,21.6,32.3,28.2.8.2.9-1,.6-1.7-1.9-4.5-10.2-14.3-13.4-19.5-33.5-55-26.5-100.1-101.8-118.1-32.8-7.9-67.4-9-96.4-28.8-1.6,1.7,16.5,25,18.8,27.6,16.3,18.6,35.8,32.5,56.4,45.9l-31-11.3c-5.5-2.6-10.8-5.6-15.9-8.8s-8.3-6.7-10.1-7.5-1.9-.3-1.7.6c20.4,24.9,47,43.6,75.3,58.8-.8,1.5-3.2,0-4.4-.3-23.1-5.9-46.8-18.3-66.1-32.1-.5,2.2,1.2,2.8,2.3,4.1,7.6,9.1,19.5,19,28.8,26.4,12.2,9.7,26.7,20,40.5,27.1.3,2.2-2.4.9-3.6.6-13.1-3.1-26.2-11.4-38.4-16.9l-25.1-16.1c18.4,22.7,42.2,40,66.3,56s3.7,2.4.2,2.1c-23.7-8.7-45.4-20.4-65.3-35.8-.9-.7-2.3-3.2-3.5-1.2,23.3,26.3,50.3,49.4,80,68.2-.7,1.5-3.2,0-4.4-.4-11.4-4.5-22.8-11.4-34.1-16.5l-40.4-27.2c21.8,26.8,49.5,49.2,78.8,67.6-2.7.6-6.8-1.4-9.4-2.4-19.5-7.5-40.1-19-57.3-30.9-.7-.5-9.5-8.6-8.5-5.6,16.9,19.9,39.8,39.5,62.4,52.8,3.3,1.9,6.7,3.6,10.5,4.2l-.6,2.3c-15.1-5.2-30-10.7-44.1-18.2-4.3-2.3-9.3-7-14.1-7.1,15.6,17.4,33.8,29.3,54.9,39.2,4.3,2,20.4,5.9,20.4,11.3v17.1h0ZM644.8,230.2c-16,4-23.9,22.1-28.2,36.4,11-10.9,20.2-23.3,28.2-36.4h0ZM580.1,253.7c2.5.6,2.7-1.3,3.8-2.7,4.4-5.2,8.5-12.8,9.1-19.7-6.7,5.8-9.3,14.6-12.9,22.3h0ZM616.5,232.6c-9.4,4.1-14.3,15.2-16.5,24.7,2.5.5,2.7-1.3,3.7-2.7,4.9-6.8,8-15.1,12.7-22h0ZM441.3,324.3c-1.9-5.7-6-12.9-11.7-15.3-1.1,1.2,9.3,14.6,11.7,15.3Z"/>
  <path class="st1" d="M592.4,838.3c1.1,0,6.9-3.3,7.6,0-22,6.5-43.9,11.7-67,8.3l5.1,3.7,24.3,9.2c-22.3,0-43.6-6.7-64.7-12.9,15.9,12.7,34.3,19.6,53.9,24.3.9.2,3.9,0,2,1.5-33-1.5-64.4-15-92.3-31.8-1.3,1.3,5.9,7.8,7,8.8,14.7,13.9,35.2,26.9,54.7,32.3,1.9,1.6-1.4,1.3-2.4,1.2-30.9-2.5-64.2-28.4-87.6-47.1-1.2,1.4,10.6,15.7,12.3,17.7,9.2,10.4,19.5,16.5,28.8,25.3,1.5,1.4,2,2-.6,1.8-34-14.5-61.7-38.7-83.5-68.2-1.8.9.3,2.8.8,3.9,4.9,11.6,13.3,25.6,21,35.5s10.2,10,6.5,8.8c-23-17.4-42.4-41.9-56.1-67.4-1.5-2.8-2.7-5.8-3.3-9-2.1-.3-1.1,2.6-.9,3.8,3.5,16,19.4,45.5,29.4,58.9s8.9,9.7,13.3,14.9,3.1,2.4,1.2,3.5c-18.9-13.8-34.9-30.3-47.4-50.2l-16.7-30.9c4.3,26.5,16.4,50.3,33.5,70.6s3.1,2.4,1.2,3.5c-25.4-21.1-45.2-49.4-54.7-81.1-2.2,0-1.2,4.9-1,6.3,2.1,18.4,9.9,39.9,19.8,55.4-1.2,1.9-2.6-.3-3.5-1.2-19.3-20.3-32-49.6-40.6-75.9-4.2,0,7.5,42.8,8.8,46.5,2.3,6.8,6,13.4,8.3,20s2.2,3.4.6,4.1c-20-27.7-34.1-59.9-38.2-94.1-2.1-.3-1.1,2.7-1.2,4.1-.9,22.7,3.6,45.1,10.6,66.5-21.8-28.5-28.1-68.2-28.2-103.5-1.7.2-2,5.2-2.2,6.6-3.2,25.6-1.2,54.7,6.9,79.2-3.1.6-2.1-.7-2.9-2.3-14.7-30.2-21.9-63.9-20.7-97.6-1.7.2-2,5.1-2.2,6.6-3.3,23-3.8,48.3,3.4,70.4.3,3.4-1.5,1-2.2-.2-16.2-29.8-16.7-73.3-14.3-106.3l-4.1,12.9c-1.2,6.3-2.4,13.1-2.9,19.4-1.1,12.8-.3,25.3.8,38s1.4,4-.8,3.8c-8.3-32.6-9.5-66.8-3.6-100l-7.9,19.7c-3.2,14.4-4.8,29-5.1,43.8l-3.5-15.9c-3.3-24.2.7-47.6,5.9-71.1l-7.9,15-8.5,28.5c0-39.2,7.1-82.7,30-115.2,0,4.5-3.3,8.4-4.7,12.9-2.9,9.2-4.1,18.9-6.4,28.2l14.3-22.7,10.4-11.4c-7.2,13.4-11.3,28.3-12.9,43.5l14.7-22.4,15.9-12.9c-9.9,13-16.6,28.3-17.6,44.7l18.2-25.9,17.1-12.9c-7.9,12.1-17.3,27-18.8,41.8-.1,1.2-.9,5.5,1.1,5.3,8.8-23.6,28-41.6,50-52.9,3.8.2.6,1.1-.2,2-8.2,8.9-16.5,16.9-20.9,28.6l-4.7,14.1c12.7-19,33.1-35.3,53.9-44.9,4.5-2.1,11.3-5.2,16.1-5.1-9,8.1-16.3,17.9-22.1,28.5-.6,1-2.6,2.9-.8,3.9,20.7-20.3,47-34.2,74.7-42.3,1.1.9-13.6,14.8-11.2,18.8,17.4-17.3,40.4-25.7,60.5-38.3,32.5-20.4,46.6-36.1,89.8-29.6,27.6,4.2,38.5,18.3,60.5,31.2,19.7,11.5,41.2,19.6,58.6,35.5,1.8-1-.4-2.7-1-3.7-2.8-4.3-6.4-8.3-9-12.8,27.8,7.5,52.5,23.3,74.7,41.1,1.7-.9-.2-2.9-.8-3.9-6.2-9.9-15.1-19-23.3-27.3-.2-.9,1.1-.8,1.7-.6,20.8,6.5,52.3,30.4,64.4,48.6,1.6,2.3,1.7,7.4,4.5,5-5-17.5-13.6-32-25.9-45.3,20.4,9.5,34.8,27,44.4,46.8s-.8,3.2,2.7,2.6c-1.5-13.2-5.9-25.9-12.7-37.3-1.1-1.8-8.2-9.9-7.3-10.9,8.6,6.6,16.5,13.4,23.5,21.8l13,20.6-4.7-23-10.6-21.7c8.5,6.2,16.1,13.5,21.6,22.4s5.1,11.5,8.9,16.4c-1.5-15.8-7.1-30.2-12.9-44.7l14.6,17.7,11.3,19.9c-.7-7.9-2-16.1-3.9-23.8s-5.6-13.8-6.1-20.9c18.9,29.5,29.1,67.8,27.6,102.9,0,1.4.9,4.4-1.2,4.1-2-18.8-10-37.7-21.2-52.9,4.7,16.4,10,32.9,11.7,50,.9,8.4,1.4,37.5-1.7,44.1s-1.5,1.5-1.8,1.2c1-18.5-2.5-36.8-8.9-54.1l-6.4-13c8.1,35.9,7.3,71.5-2.4,107-2,.3-1.2-2.8-1.2-4.1.2-22.7,3-45.4-5.5-67.4l-3.9-8.5c6.2,35.9,3,78.3-12.4,111.7-.8,1.8.2,2.9-2.9,2.3,6.2-23.6,9.3-55.9,2.5-79.6-.6-2,.9-3.3-2.5-2.7,4.3,35.5-4.4,73-20.6,104.7l5.1-26.6c1.9-17.2,3.7-34.1,1-51.2-.2-1.4-.3-5.7-2-5.6,0,33.6-8.8,68.6-27.7,96.4l5.9-21.1c2.5-16.3,5.6-32.9,3.5-49.4-3,6.9-2.9,15-4.7,22.3-5.3,21.6-13.9,43.2-27.1,61.2l9.7-36.2,2.1-24.9c-4.3,10.4-7.2,21.4-11.8,31.7-8.4,19-20.2,35.3-35.3,49.4l13-22.3c5.2-12.8,12.2-27.2,14.4-40.9s1.3-4.1-.9-3.8c-11.2,29.7-32.1,56.8-60.6,71.7l-.6-2.3c1.4,0,2.5-.8,3.5-1.7,21.2-20,37.6-46.5,48.2-73.6-7.2,8.6-11.9,18.7-18.9,27.6-13.9,17.8-33.2,34.1-54.1,43,22.5-20.6,46.4-44.7,57.1-74,.4-1.1,1.5-3.8-.6-3.6-.5,3-2.4,5.7-4.2,8.1-19.1,25.3-47.5,48.2-76.5,61.1l-32.2,11.9c7.6-.3,15.3.4,22.9,0h0ZM655.4,698.3c25.4-60.4-11.8-118.4-55.8-157.6-54-48.1-120.5-48.5-174.7-.6-39.7,35.1-75.9,88.5-61.7,144.1,1.5,5.8,4,11.1,6.5,16.5-22-19.1-29.9-48.5-22.3-76.4-3.1-.7-2,.8-2.9,2.3-6.6,11.2-12.6,24.8-14.7,37.7-2.1-.4-2.2-2.3-2.4-4.1-1.2-10.7,1.6-19.5,2.4-29.5s.9-4.4-1.1-4.1c-18.6,28.4-24.3,68.4,1.8,94.1,0-12.1-4.6-24.3-2.4-36.4,10.9,16.1,27.1,23.1,43.7,31.6,66.5,33.7,128.5,54.5,204.1,36.3,15.1-3.6,29.6-9.5,44.4-13.8l-28.2,19.4c-12.5,6.1-24.9,13.2-38.8,15.9,0,1.5-1.1,2.4,1.5,2,4.8-.8,10.3-.2,15.4-1,9.5-1.4,20-4.4,28.4-9.2l.6,2.3c-54.2,35.9-123.7,29.5-180.7,3.8-11-5-21.2-11.6-32.1-16.7,36.5,54.9,104,74.6,167.6,69.4,55.9-4.6,101.6-33.8,121.7-87-18.7,20.7-37.9,38.8-62.9,51.7l-1.7-.6c15.3-14.6,31.7-28.3,42.3-47.1-1.3-2-2.6.5-3.5,1.2-6.9,5.3-13.3,10.1-21.1,14.2l-13,4.7,40-37.6-12.8,6c-2,.9-3.6,1.1-1.3-1.3,8.4-8.5,28.7-17.6,39.4-26.5,6.5-5.4,12.2-11.4,16.5-18.8v35.3c20.5-27.7,17.1-60.5-1.2-88.2-.9-1.4.3-3-2.9-2.3,2.4,9.7,3.6,23.6,2.4,33.5s-.8,3.6-2.3,1.7c-2.2-12.5-7.6-26.3-15.3-36.5,5.1,27.1-2.1,53-22.3,71.7h-.6ZM723.6,709.5c1-7.3-.8-16.6,0-24.1l-12.9,44.1c.7,1.3,3.1-1.8,3.6-2.3,3.4-3.8,8.7-12.7,9.4-17.7h0ZM314.3,731.3l-14.1-44.7c-2.5,16.3-.1,34.3,14.1,44.7Z"/>
  <path class="st1" d="M573.9,362.2l215-.3c26,1.9,35.5,17,35.9,41.8,0,3.9-1.4,7.2-1.4,10.6,0,45.1,10.3,101.3-52.2,105.3-52.4,3.4-110.4-1.3-163-1.8-37.4-8.6-54.5-63.1-92.3-66.5-45.9-4.2-64.9,65.2-109.4,68.2-49.8-2.7-103.6,3.7-152.9,0-24-1.8-45.2-15-51.5-39.1-3.8-14.3-3.8-73.7-1.7-89.4s10.6-23.5,22.9-27.7l225.6-.3c7.7-.5,13.2,6.5,19.4,8.9,8.2,3.2,67.9,3,79.4,1.8,9.3-.9,16.7-9.6,26.1-11.5h.1ZM582.2,377.6c-11.7.8-17.8,10.4-29.7,11.5-26.2,2.3-55.8-1.8-82.4,0-9.8-.8-16.1-10.2-25.8-10.6l-214.8.6c-6.4,1.5-11.3,6.7-12.8,13.1,4.6,31.4-16.6,104.9,30,111h162.1c44.7-17.4,55.7-72.5,111.8-66.9,38.5,3.8,57.4,55.2,92.3,66.5l167.4.2c16.1-3.4,26.1-17.5,27.8-33.4,1.7-16.6,2.2-58.9.2-75.2-1.5-12.5-11.9-16.2-22.9-17.1l-203.2.4h0Z"/>
  <path class="st1" d="M541.3,481.9c-19.8-4.5-40.5-4.5-60,1.2,11.2-14.2,29.4-17.5,46.2-11.5,1.8.6,16.4,7.8,13.8,10.3Z"/>
  <path class="st0" d="M644.8,230.2c-8,13.2-17.3,25.5-28.2,36.4,4.3-14.4,12.3-32.4,28.2-36.4h0Z"/>
  <path class="st0" d="M616.5,232.6c-4.7,6.9-7.8,15.2-12.7,22-1.1,1.5-1.2,3.3-3.7,2.7,2.2-9.4,7.1-20.6,16.5-24.7h0Z"/>
  <path class="st0" d="M580.1,253.7c3.6-7.8,6.2-16.5,12.9-22.3-.7,6.9-4.8,14.5-9.1,19.7-1.1,1.3-1.3,3.2-3.8,2.7h0Z"/>
  <path class="st0" d="M441.3,324.3c-2.5-.7-12.8-14.1-11.7-15.3,5.7,2.4,9.8,9.6,11.7,15.3Z"/>
  <path class="st0" d="M655.4,698.3c20.3-18.7,27.5-44.6,22.3-71.7,7.7,10.1,13.1,23.9,15.3,36.5,1.5,1.9,2.1,0,2.3-1.7,1.3-9.9,0-23.8-2.4-33.5,3.2-.7,2,1,2.9,2.3,18.3,27.7,21.7,60.5,1.2,88.2v-35.3c-4.3,7.4-10,13.4-16.5,18.8-10.7,8.8-31,18-39.4,26.5-2.3,2.4-.7,2.2,1.3,1.3l12.8-6-40,37.6,13-4.7c7.9-4,14.2-8.8,21.1-14.2s2.3-3.2,3.5-1.2c-10.6,18.8-27,32.4-42.3,47.1l1.7.6c25.1-12.9,44.2-31,62.9-51.7-20.1,53.2-65.9,82.4-121.7,87-63.6,5.2-131.1-14.5-167.6-69.4,10.9,5.1,21.1,11.7,32.1,16.7,57.1,25.8,126.6,32.1,180.7-3.8l-.6-2.3c-8.4,4.8-18.9,7.8-28.4,9.2-5.1.8-10.6.2-15.4,1s-1.4-.5-1.5-2c13.9-2.7,26.3-9.7,38.8-15.9l28.2-19.4c-14.9,4.2-29.4,10.1-44.4,13.8-75.6,18.2-137.7-2.5-204.1-36.3-16.6-8.4-32.8-15.5-43.7-31.6-2.2,12.1,2.5,24.3,2.4,36.4-26.1-25.7-20.4-65.7-1.8-94.1,2-.3,1.2,2.8,1.1,4.1-.8,10-3.6,18.8-2.4,29.5.2,1.8.2,3.6,2.4,4.1,2.2-12.9,8.2-26.5,14.7-37.7s-.2-3,2.9-2.3c-7.6,28,.4,57.4,22.3,76.4-2.4-5.4-5-10.7-6.5-16.5-14.1-55.6,22.1-109,61.7-144.1,54.2-48,120.7-47.5,174.7.6,44.1,39.3,81.2,97.2,55.8,157.6h.6ZM506.9,517.6c-44.5,1.7-82.1,33.9-106.6,68.7-39.8,56.6-30.9,122.9,51,116.9,30-2.2,45-22.8,78.2-13.6,29.8,8.3,44.3,19.9,78.1,9.9,55-16.1,42.2-74.2,17.4-111.3-26.2-39.2-68.8-72.4-118.1-70.5h0ZM555.4,718.3c-13.1,2.8-25.2-6.3-37.3-7.9-16.9-2.3-32.4,6.5-48.5,9.7,24.2,6.8,50.7,6.8,75.3,2.4,2.5-.4,5.4-1,7.8-1.7s3.3.9,2.7-2.5Z"/>
  <path class="st0" d="M314.3,731.3c-14.2-10.4-16.6-28.4-14.1-44.7l14.1,44.7Z"/>
  <path class="st0" d="M723.6,709.5c-.7,5-5.9,13.9-9.4,17.7-.5.5-2.9,3.6-3.6,2.3l12.9-44.1c-.8,7.5,1,16.8,0,24.1h0Z"/>
  <path class="st0" d="M582.2,377.6l203.2-.4c11,.9,21.4,4.6,22.9,17.1,2,16.3,1.6,58.5-.2,75.2-1.7,15.9-11.7,30-27.8,33.4l-167.4-.2c-34.8-11.3-53.7-62.7-92.3-66.5-56.1-5.6-67.2,49.5-111.8,66.9h-162.1c-46.7-6.1-25.4-79.6-30-111,1.5-6.4,6.4-11.6,12.8-13.1l214.8-.6c9.8.4,16,9.9,25.8,10.6,26.6-1.8,56.2,2.4,82.4,0s18-10.7,29.7-11.5h0ZM257.6,392.7c-1.4-2.2-10.3-1.9-9,4.8,1.9,9.9,13,1.4,9-4.8ZM279.3,392.8c-3.3,3.7,2.2,12.3,7.5,8s-2.7-13.5-7.5-8ZM316.4,400.5c2.3-3.2,1.1-10.1-4.8-8.9-11.1,2.1.2,15.3,4.8,8.9ZM345.7,400.5c4.5-4.6-2.2-12.9-7.7-7.7s3.1,12.3,7.7,7.7ZM367.4,400.6c2.9,4.5,14.5-2.6,7.6-8.2s-10.1,4.3-7.6,8.2ZM398.5,391.5c-4.2,1.5-2.7,10.3,2.2,10.4,8.5.2,6.3-13.4-2.2-10.4ZM426.2,400.6c2.9,4.5,14.5-2.6,7.6-8.2s-10.1,4.3-7.6,8.2ZM588,391.5c-4.5,1.3-4.7,9.7.9,9.9,8.5.3,6.3-11.9-.9-9.9ZM615.6,400.5c7.8,5.5,13.5-10.2,2.9-8.9s-5.4,7.2-2.9,8.9ZM646.8,391.5c-4.8,1.3-4.2,10.2.9,10.4,7.9.3,6.7-12.5-.9-10.4ZM676.2,391.5c-5.5,1.5-3.9,12.2,3,10.3,5.5-1.5,3.9-12.2-3-10.3ZM706.8,391.5c-5.7,1.1-6.4,8.1-.9,9.9,9,2.9,9.2-11.5.9-9.9ZM740.9,392.8c-6.6-6.5-14.2,7.3-4.7,8.9,5.5.9,7.9-5.7,4.7-8.9ZM770.3,400.5c5.3-5.4-3.1-12.1-7.6-7.6s3.1,12.2,7.6,7.6ZM268,405.7c-6.4.5-6,11.8,1,11.5,6.7-.2,4.2-11.9-1-11.5ZM298.6,405.6c-6.9.6-7.2,10.1-.2,11.6,6-.5,5.2-12.1.2-11.6ZM326.8,405.7c-8.3.7-3.5,16.8,4,9.8s.7-10.2-4-9.8ZM353.4,415.8c3.6,3.6,10.7-.5,8.1-6.2-3.9-8.7-13.3.9-8.1,6.2ZM385.7,405.6c-9.1,1.3-3.2,16.6,3.9,9.9s.8-10.5-3.9-9.9ZM415,405.7c-6.5.5-5.8,11.8.8,11.2,6.5-.5,5.8-11.8-.8-11.2ZM440.4,408.1c-2.6,4.5,4,11.5,7.9,7.4,6.8-7.1-4.5-13.3-7.9-7.4ZM578.5,408.2c-4.7-6.4-13.1,3.4-7.4,8s10.8-3.4,7.4-8ZM604.2,406c-9.1-.4-6,15.4,2.2,10,4.8-3.2,2.5-9.8-2.2-10ZM693.6,405.8c-5.7-.4-7.3,10.1-1,11.3,6.9,1.3,6.1-10.9,1-11.3ZM722.1,405.6c-6.9,1-5.7,12.2.8,11.6s5.7-12.6-.8-11.6ZM748.6,415.8c4.9,4.9,13-4.3,6-9s-9.9,5-6,9ZM781.8,406c-6.3.2-5.6,11.6,1,11s6.5-11.3-1-11ZM236.2,406.8c-3.2,1.1-2.6,8.4.4,9.9,8.5,4.3,10-13.4-.4-9.9ZM631.5,406.8c-8.4,2.5,2.5,16.2,6.8,6.8s-2.1-8.2-6.8-6.8ZM660.9,406.9c-4.5,1.3-4,6.8-.3,9.3,7.4,4.9,11-12.5.3-9.3ZM338,429.9c8.3,7.7,14.7-8.1,2.2-10.3-.8,2.8-5,7.6-2.2,10.3ZM623.4,430c1.7-2.8-1.1-7.7-2.3-10.3-5.5.4-9.4,7.2-5.5,11.4s7,0,7.7-1.1h0ZM733.5,422.4c-8.1,15.7,21.8,7.9,2.5-2.8-.4,1.1-2.3,2.5-2.5,2.8ZM249.9,422.2c-3.9,3.9.9,12.1,6.8,8.5,5.5-3.4-1.5-13.8-6.8-8.5ZM283.3,420.9c-7.8.6-6.1,14.2,2.7,9.8,5-2.5.9-10.1-2.7-9.8ZM316.3,422.2c-5.8-5.6-12.9,4.8-6.8,8.5s10.1-5.4,6.8-8.5ZM370.4,420.9c-5.5,1.5-3.9,12.2,3,10.3,5.5-1.5,3.9-12.2-3-10.3ZM404.5,422.2c-4.5-4.6-12.3,3.2-7.7,7.7s12.7-2.5,7.7-7.7ZM429.2,420.9c-4,1.1-5.1,9.7-.2,10.5,9.1,1.5,8.2-12.7.2-10.5ZM594,430c4-6.3-6.4-13.9-9.9-5.7-2.2,5.3,7.5,9.4,9.9,5.7ZM646.8,420.9c-5.7,1.7-4.7,12.6,2.8,11,6.1-1.3,4.1-13-2.8-11ZM676.2,420.9c-6.1,1.7-3.9,15.9,5.1,8.7s-.5-10-5.1-8.7ZM711.5,422.2c-3.1-3-10-1-8.9,4.7,2,10.2,15,1.4,8.9-4.7ZM765.6,420.9c-4,1.1-4.4,8-.8,9.8,8.3,4.2,9.4-12.3.8-9.8ZM331.6,445.2c4.6-4.6-3.2-14.1-8-7.4s4.1,11.4,8,7.4ZM604.2,435.2c-5.1-.4-8.5,10.5-1,11.2,7.7.7,5.5-10.9,1-11.2ZM726.8,437.6c-5.6-6.7-14.2,5.9-5.6,8.6,5.1,1.6,8.2-5.4,5.6-8.6ZM747.4,437.5c-4.9,8.3,9.9,13.8,9.3,2.7s-7.5-5.6-9.3-2.7ZM785.6,436.3c-3.4-3.5-9,.1-7.9,6.1,1.5,8.8,14.7.9,7.9-6.1ZM234.5,437.4c-4.4,6.9,8,14.1,9.3,5s-7.6-7.7-9.3-5ZM271.6,445.2c3.8-4,0-11.4-5.6-8.6s.6,13.7,5.6,8.6ZM302.2,445.1c5.8-6.8-7.3-14.4-8.9-4.7s6.2,7.9,8.9,4.7ZM361,437.5c-5.2-5.1-12.7,2.5-7.7,7.6,5.1,5.1,12-3.5,7.7-7.6ZM384.5,436.3c-5.7,1.7-3.7,12.2,3,10.2s5.4-12.8-3-10.2ZM413.9,436.2c-5.1,1.4-4.3,10.7,1.9,10.1s5.2-12.1-1.9-10.1ZM441.5,445.3c6.8,4.3,13.8-8,5-9.3s-7.7,7.6-5,9.3ZM572.7,436.2c-5.7,1.6-3.1,12.3,3.1,10.3s4.2-12.3-3.1-10.3ZM637.4,445.2c3.1-2.7,1.7-9.2-3.7-9.1-10,.2-2.5,14.6,3.7,9.1ZM666.9,437.4c-12.2-5.4-12.2,13.3,0,7.9v-7.9ZM689.6,436.2c-1.7,3.9-2.8,8.4,2.2,10,8.3,2.6,8.2-13.1-2.2-10ZM257.7,460.6c4.8-11.9-12.7-14-8.2-1.5l8.2,1.5ZM279,460.8c2.4-.2,6,.8,7.7-1.2,6.6-7.8-10.5-16.3-7.7,1.2ZM310.4,450.3c-6.1,1.5-3.3,14,5,9.8,5.4-2.7,0-11.1-5-9.8ZM338.1,451.6c-3.2,3.6,1.8,11.6,6.8,8.6s-1.4-14.7-6.8-8.6ZM371.5,450.4c-7.4.7-6.4,13.4,3.2,10.2,3.7-1.2,2.8-10.7-3.2-10.2ZM404.5,451.6c-7.4-7.5-13.2,11.2-2.7,9.1s5.7-6.1,2.7-9.1ZM429.2,450.3c-4,1.1-5.1,9.7-.2,10.5,9.1,1.5,8.2-12.7.2-10.5ZM592.7,451.6c-3-3-8.5-1.5-8.5,3.8,0,10.6,15.5,3.3,8.5-3.8ZM623.3,459.3c4.7-8.1-9.1-13.3-9.2-3.9s7.2,7.3,9.2,3.9ZM647.9,450.4c-7.4.7-6.4,13.4,3.2,10.2s2.8-10.7-3.2-10.2ZM680.9,451.6c-5.8-5.8-11.1,5.7-6.8,8.6,6.4,4.4,11.1-4.3,6.8-8.6ZM703.8,460.5c5.7,4,13.3-4.2,6-9s-9.8,6.5-6,9ZM741,459.3c2.5-3.5.7-10.3-5.3-8.8-9.9,2.5.9,15,5.3,8.8ZM770.4,451.5c-7.6-4.8-13.4,9-3.8,9.2,6.1.1,6.1-7.8,3.8-9.2ZM331.6,467c-7.6-9.2-13.9,8.9-3.8,8.9s6.4-5.7,3.8-8.9ZM237.5,465.6c-5.5,1.5-3.9,12.2,3,10.3s3.9-12.2-3-10.3ZM266.9,465.6c-3.9,1.1-4.8,7.5-.5,9.6,8.6,4.2,9.2-12,.5-9.6ZM302.3,466.8c-6.5-3.4-11.5,1.3-7.8,7.8l6.7,1.4,1.1-9.1h0ZM353.4,474.6c7.1,7.1,13.4-11,2.7-9.2-3.8.7-5.3,6.5-2.7,9.2ZM381.6,474.6c4.6,5.2,14.2-3.1,7.4-8-5.7-4.2-10.6,4.4-7.4,8ZM420,474.7l-.9-8.8c-12-3.3-11.1,14.1.9,8.8ZM608,466.9c-5.7-6.5-15.1,7.5-4.9,8.8,5.7.7,7.4-5.9,4.9-8.8ZM637.4,466.9c-6.3-6.4-13.5,8.9-3.7,9.1s6.8-6,3.7-9.1ZM666.8,466.9c-6.4-7.3-13.7,8.1-4.9,8.7s7.6-5.7,4.9-8.7ZM691.5,465.6c-6.3,1.8-2.5,14.9,5,8.6s-.2-9.9-5-8.6ZM720.9,465.6c-6.1,1.7-2.9,14.5,5,8.6,4.5-3.3,0-10-5-8.6ZM750.3,465.6c-5.5,1.5-3.9,12.2,3,10.3s3.9-12.2-3-10.3ZM780.8,465.6c-5.6,1.7-4.1,10.3.9,10.4,8.1.2,6.5-12.6-.9-10.4ZM286.9,481c-3.5-3.7-12,2.6-6.8,8.6,4.4,5.1,12-2.9,6.8-8.6ZM316.3,489.9c4.9-5-2.8-14.4-8-7.4s4.6,11,8,7.4ZM345.7,489.9c4.1-4.2-1.1-12.7-6-9-6.9,5.1,1.7,13.5,6,9ZM371.5,479.8c-6.5.5-5.8,11.8.8,11.2,6.5-.5,5.8-11.8-.8-11.2ZM404.5,489.9c5.4-5.4-4.5-15.8-8.5-5.7s4.8,9.4,8.5,5.7ZM615.7,489.9c5,5,11.2-3.5,6.8-8.5s-11.4,3.8-6.8,8.5ZM647.7,480.1c-6.3.2-5.6,11.6,1,11s6.5-11.3-1-11ZM703.8,481c-5.1,3.6,2.8,14.6,8.1,7.5,3.9-5.3-2.4-11.5-8.1-7.5ZM733.3,489.9c3.8,3.9,11.7-2.6,8-7.4-5.3-7-12.8,2.4-8,7.4ZM762.7,481c-3.2,3.2-.8,10,4.9,9.1,9.2-1.3,1.1-15.1-4.9-9.1ZM251.6,480.9c-9.2,2.7,3.6,17.1,6.9,6.9,1.6-5.1-1.9-8.4-6.9-6.9ZM674.9,480.9c-3.3,1.1-3.1,8.5,1.6,10,7.9,2.4,9.2-13.6-1.6-10Z"/>
  <path class="st1" d="M506.9,517.6c49.3-1.9,91.9,31.3,118.1,70.5,24.8,37.2,37.7,95.2-17.4,111.3-33.9,9.9-48.3-1.7-78.1-9.9-33.1-9.2-48.1,11.4-78.2,13.6-81.9,6.1-90.8-60.3-51-116.9,24.5-34.8,62.1-67,106.6-68.7h0ZM428.3,632.5c.9,23.8,23.4,36.7,43.4,21.7,18.2-13.7,23-43.6,16.2-64.2-10.8-32.9-38.4-12.1-53.2,4.9-18.6,21.4-35.9,60.7-1.8,76.5-1-3.6-3.7-5.7-5.3-9.4-2.8-6.5-3.6-14.5-2.8-21.6s.9-6.8,3.4-7.8h0ZM594.2,668.9c19.7-7.7,17.4-33.5,10.4-49.8-7.1-16.5-35.6-53-56.2-46-18.2,6.2-16,50.1-9.3,64.5,13.1,28,50.4,32.3,56.3-2.2s.6-3.9,2.3-1.8c2.5,12.1,3,24.3-3.5,35.3ZM564.8,674.8c-9.4-.7-17.6-5.5-25.9-9.4,3,4.2,6.8,8.1,11.8,10s11.8,3.9,14.1-.5h0ZM458.9,677.1c8.6.8,20.4-1.4,23.5-10.6l-23.5,10.6Z"/>
  <path class="st1" d="M555.4,718.3c.6,3.4-.7,1.9-2.7,2.5s-5.3,1.2-7.8,1.7c-24.7,4.4-51.2,4.4-75.3-2.4,16.1-3.2,31.7-12,48.5-9.7,12.1,1.7,24.3,10.7,37.3,7.9Z"/>
  <path class="st1" d="M385.7,405.6c4.7-.6,7.9,6.1,3.9,9.9-7,6.7-13-8.6-3.9-9.9Z"/>
  <path class="st1" d="M733.5,422.4c.2-.4,2.2-1.8,2.5-2.8,19.3,10.8-10.7,18.5-2.5,2.8Z"/>
  <path class="st1" d="M326.8,405.7c4.7-.4,8.1,5.9,4,9.8-7.5,7-12.3-9.1-4-9.8Z"/>
  <path class="st1" d="M722.1,405.6c6.6-.9,7,11.1.8,11.6s-7.7-10.7-.8-11.6Z"/>
  <path class="st1" d="M331.6,445.2c-4,4-12.6-1-8-7.4s12.6,2.8,8,7.4Z"/>
  <path class="st1" d="M646.8,420.9c7-2,8.9,9.7,2.8,11-7.5,1.6-8.6-9.4-2.8-11Z"/>
  <path class="st1" d="M604.2,406c4.7.2,7,6.8,2.2,10-8.2,5.5-11.3-10.4-2.2-10Z"/>
  <path class="st1" d="M331.6,467c2.6,3.1,1.1,8.9-3.8,8.9-10.1,0-3.8-18,3.8-8.9Z"/>
  <path class="st1" d="M703.8,460.5c-3.7-2.6-.8-13.6,6-9s-.3,13-6,9Z"/>
  <path class="st1" d="M316.3,489.9c-3.4,3.6-12.1-1.9-8-7.4s12.9,2.4,8,7.4Z"/>
  <path class="st1" d="M706.8,391.5c8.3-1.6,8,12.8-.9,9.9s-4.8-8.8.9-9.9Z"/>
  <path class="st1" d="M404.5,489.9c-3.6,3.7-10.7-.1-8.5-5.7,4-10.1,13.8.3,8.5,5.7Z"/>
  <path class="st1" d="M703.8,481c5.6-4,12,2.1,8.1,7.5-5.3,7.2-13.2-3.9-8.1-7.5Z"/>
  <path class="st1" d="M251.6,480.9c5-1.5,8.5,1.8,6.9,6.9-3.3,10.3-16.1-4.1-6.9-6.9Z"/>
  <path class="st1" d="M733.3,489.9c-4.8-5,2.7-14.5,8-7.4s-4.3,11.3-8,7.4Z"/>
  <path class="st1" d="M748.6,415.8c-3.9-3.9.6-12.6,6-9s-1.1,13.9-6,9Z"/>
  <path class="st1" d="M338,429.9c-2.8-2.6,1.4-7.4,2.2-10.3,12.5,2.2,6.1,18-2.2,10.3Z"/>
  <path class="st1" d="M415,405.7c6.6-.6,7.3,10.7.8,11.2-6.6.6-7.3-10.7-.8-11.2Z"/>
  <path class="st1" d="M310.4,450.3c5-1.2,10.4,7.2,5,9.8-8.3,4.1-11.2-8.3-5-9.8Z"/>
  <path class="st1" d="M371.5,479.8c6.6-.6,7.3,10.7.8,11.2-6.6.6-7.3-10.7-.8-11.2Z"/>
  <path class="st1" d="M676.2,420.9c4.7-1.3,9.7,5.1,5.1,8.7-9,7.1-11.3-7-5.1-8.7Z"/>
  <path class="st1" d="M711.5,422.2c6.1,6.1-7,14.9-8.9,4.7-1.1-5.7,5.9-7.8,8.9-4.7Z"/>
  <path class="st1" d="M384.5,436.3c8.5-2.5,8.8,8.6,3,10.2s-8.7-8.5-3-10.2Z"/>
  <path class="st1" d="M578.5,408.2c3.4,4.6-2.5,11.9-7.4,8s2.7-14.3,7.4-8Z"/>
  <path class="st1" d="M781.8,406c7.5-.3,7.1,10.5,1,11s-7.3-10.7-1-11Z"/>
  <path class="st1" d="M647.9,450.4c5.9-.6,6.9,8.9,3.2,10.2-9.6,3.2-10.5-9.5-3.2-10.2Z"/>
  <path class="st1" d="M371.5,450.4c5.9-.6,6.9,8.9,3.2,10.2-9.6,3.2-10.5-9.5-3.2-10.2Z"/>
  <path class="st1" d="M440.4,408.1c3.4-5.9,14.7.3,7.9,7.4s-10.5-2.9-7.9-7.4Z"/>
  <path class="st1" d="M623.4,430c-.7,1.1-6.1,2.8-7.7,1.1-3.9-4.2,0-11,5.5-11.4,1.2,2.7,4,7.6,2.3,10.3h0Z"/>
  <path class="st1" d="M381.6,474.6c-3.2-3.6,1.8-12.2,7.4-8,6.7,4.9-2.9,13.2-7.4,8Z"/>
  <path class="st1" d="M762.7,481c6-6,14.2,7.8,4.9,9.1s-8.1-5.9-4.9-9.1Z"/>
  <path class="st1" d="M674.9,480.9c10.8-3.6,9.5,12.4,1.6,10s-4.9-8.8-1.6-10Z"/>
  <path class="st1" d="M740.9,392.8c3.2,3.2.8,9.8-4.7,8.9-9.4-1.6-1.9-15.4,4.7-8.9Z"/>
  <path class="st1" d="M594,430c-2.4,3.7-12.1-.4-9.9-5.7,3.4-8.3,13.9-.7,9.9,5.7Z"/>
  <path class="st1" d="M353.4,415.8c-5.3-5.3,4.1-14.9,8.1-6.2,2.6,5.8-4.5,9.9-8.1,6.2Z"/>
  <path class="st1" d="M268,405.7c5.2-.4,7.7,11.3,1,11.5-7,.2-7.4-11-1-11.5Z"/>
  <path class="st1" d="M647.7,480.1c7.5-.3,7.1,10.5,1,11s-7.3-10.7-1-11Z"/>
  <path class="st1" d="M785.6,436.3c6.7,7-6.4,15-7.9,6.1s4.6-9.6,7.9-6.1Z"/>
  <path class="st1" d="M747.4,437.5c1.7-2.9,8.9-3.1,9.3,2.7.6,11.1-14.1,5.6-9.3-2.7Z"/>
  <path class="st1" d="M361,437.5c4.3,4.2-2.6,12.8-7.7,7.6-5-5.1,2.4-12.7,7.7-7.6Z"/>
  <path class="st1" d="M615.7,489.9c-4.6-4.7,2.4-13.5,6.8-8.5,4.4,5.1-1.8,13.5-6.8,8.5Z"/>
  <path class="st1" d="M302.2,445.1c-2.7,3.1-9.8,1-8.9-4.7,1.6-9.7,14.7-2.1,8.9,4.7Z"/>
  <path class="st1" d="M429.2,420.9c8-2.2,8.9,11.9-.2,10.5s-3.8-9.4.2-10.5Z"/>
  <path class="st1" d="M345.7,489.9c-4.3,4.5-12.9-3.9-6-9,5-3.7,10.1,4.8,6,9Z"/>
  <path class="st1" d="M398.5,391.5c8.5-3,10.7,10.6,2.2,10.4-4.8-.1-6.4-8.9-2.2-10.4Z"/>
  <path class="st1" d="M286.9,481c5.2,5.6-2.4,13.7-6.8,8.6-5.2-6,3.3-12.3,6.8-8.6Z"/>
  <path class="st1" d="M316.4,400.5c-4.6,6.4-15.8-6.8-4.8-8.9s7,5.8,4.8,8.9Z"/>
  <path class="st1" d="M420,474.7c-12.1,5.4-12.9-12-.9-8.8l.9,8.8Z"/>
  <path class="st1" d="M316.3,422.2c3.3,3.2-.5,12.3-6.8,8.5s1-14.2,6.8-8.5Z"/>
  <path class="st1" d="M429.2,450.3c8-2.2,8.9,11.9-.2,10.5s-3.8-9.4.2-10.5Z"/>
  <path class="st1" d="M623.3,459.3c-2,3.4-9.3,3-9.2-3.9s13.9-4.2,9.2,3.9Z"/>
  <path class="st1" d="M279.3,392.8c4.8-5.4,13.4,3.2,7.5,8s-10.8-4.3-7.5-8Z"/>
  <path class="st1" d="M726.8,437.6c2.6,3.1-.4,10.2-5.6,8.6-8.7-2.7,0-15.3,5.6-8.6Z"/>
  <path class="st1" d="M770.3,400.5c-4.5,4.5-12.2-3.1-7.6-7.6s13,2.3,7.6,7.6Z"/>
  <path class="st1" d="M298.6,405.6c5-.5,5.8,11.2-.2,11.6-7-1.5-6.7-11,.2-11.6Z"/>
  <path class="st1" d="M404.5,422.2c5,5.2-2.5,12.7-7.7,7.7s3.2-12.3,7.7-7.7Z"/>
  <path class="st1" d="M257.7,460.6l-8.2-1.5c-4.4-12.5,13-10.4,8.2,1.5Z"/>
  <path class="st1" d="M249.9,422.2c5.3-5.3,12.3,5.2,6.8,8.5-5.9,3.6-10.7-4.7-6.8-8.5Z"/>
  <path class="st1" d="M631.5,406.8c4.7-1.4,9,2,6.8,6.8-4.3,9.4-15.2-4.3-6.8-6.8Z"/>
  <path class="st1" d="M404.5,451.6c3,3,1.6,8.2-2.7,9.1-10.4,2.1-4.7-16.6,2.7-9.1Z"/>
  <path class="st1" d="M592.7,451.6c7.1,7.2-8.5,14.4-8.5,3.8s5.5-6.9,8.5-3.8Z"/>
  <path class="st1" d="M236.2,406.8c10.4-3.5,8.9,14.2.4,9.9s-3.6-8.8-.4-9.9Z"/>
  <path class="st1" d="M680.9,451.6c4.3,4.3-.4,13-6.8,8.6-4.2-2.9,1.1-14.4,6.8-8.6Z"/>
  <path class="st1" d="M741,459.3c-4.4,6.2-15.3-6.3-5.3-8.8s7.8,5.3,5.3,8.8Z"/>
  <path class="st1" d="M234.5,437.4c1.7-2.6,10.3-2.1,9.3,5s-13.6,1.8-9.3-5Z"/>
  <path class="st1" d="M441.5,445.3c-2.6-1.6-2.1-10.3,5-9.3s1.7,13.5-5,9.3Z"/>
  <path class="st1" d="M237.5,465.6c6.9-1.9,8.5,8.7,3,10.3s-8.5-8.7-3-10.3Z"/>
  <path class="st1" d="M353.4,474.6c-2.7-2.6-1.2-8.5,2.7-9.2,10.8-1.8,4.4,16.2-2.7,9.2Z"/>
  <path class="st1" d="M338.1,451.6c5.4-6.1,13,4.7,6.8,8.6s-10-5-6.8-8.6Z"/>
  <path class="st1" d="M345.7,400.5c-4.5,4.6-12.2-3.2-7.7-7.7s12.1,3.1,7.7,7.7Z"/>
  <path class="st1" d="M608,466.9c2.5,2.9.8,9.5-4.9,8.8-10.2-1.3-.8-15.3,4.9-8.8Z"/>
  <path class="st1" d="M637.4,466.9c3.1,3.1,1.6,9.2-3.7,9.1-9.8-.2-2.6-15.5,3.7-9.1Z"/>
  <path class="st1" d="M367.4,400.6c-2.5-3.9,2.1-12.6,7.6-8.2s-4.7,12.7-7.6,8.2Z"/>
  <path class="st1" d="M750.3,465.6c6.9-1.9,8.5,8.7,3,10.3s-8.5-8.7-3-10.3Z"/>
  <path class="st1" d="M780.8,465.6c7.4-2.2,9,10.6.9,10.4-5-.1-6.5-8.7-.9-10.4Z"/>
  <path class="st1" d="M689.6,436.2c10.4-3.2,10.5,12.5,2.2,10s-3.9-6-2.2-10Z"/>
  <path class="st1" d="M426.2,400.6c-2.5-3.9,2.1-12.6,7.6-8.2s-4.7,12.7-7.6,8.2Z"/>
  <path class="st1" d="M676.2,391.5c6.9-1.9,8.5,8.7,3,10.3-6.9,1.9-8.5-8.7-3-10.3Z"/>
  <path class="st1" d="M660.9,406.9c10.7-3.2,7.1,14.2-.3,9.3-3.7-2.4-4.2-7.9.3-9.3Z"/>
  <path class="st1" d="M283.3,420.9c3.6-.3,7.8,7.3,2.7,9.8-8.8,4.4-10.6-9.2-2.7-9.8Z"/>
  <path class="st1" d="M370.4,420.9c6.9-1.9,8.5,8.7,3,10.3-6.9,1.9-8.5-8.7-3-10.3Z"/>
  <path class="st1" d="M266.9,465.6c8.7-2.4,8.1,13.8-.5,9.6-4.3-2.1-3.4-8.5.5-9.6Z"/>
  <path class="st1" d="M257.6,392.7c4,6.3-7.1,14.7-9,4.8s7.6-7,9-4.8Z"/>
  <path class="st1" d="M666.8,466.9c2.7,3,.9,9.1-4.9,8.7-8.8-.6-1.5-16,4.9-8.7Z"/>
  <path class="st1" d="M691.5,465.6c4.8-1.4,9.4,4.9,5,8.6-7.5,6.3-11.2-6.8-5-8.6Z"/>
  <path class="st1" d="M646.8,391.5c7.6-2.1,8.8,10.7.9,10.4s-5.7-9-.9-10.4Z"/>
  <path class="st1" d="M604.2,435.2c4.5.3,6.7,11.8-1,11.2-7.5-.7-4.1-11.6,1-11.2Z"/>
  <path class="st1" d="M765.6,420.9c8.6-2.4,7.4,14-.8,9.8s-3.2-8.7.8-9.8Z"/>
  <path class="st1" d="M413.9,436.2c7.1-2,9,9.5,1.9,10.1s-7-8.7-1.9-10.1Z"/>
  <path class="st1" d="M770.4,451.5c2.3,1.4,2.3,9.3-3.8,9.2-9.6-.2-3.8-14,3.8-9.2Z"/>
  <path class="st1" d="M572.7,436.2c7.3-2,7.8,8.8,3.1,10.3s-8.8-8.7-3.1-10.3Z"/>
  <path class="st1" d="M637.4,445.2c-6.2,5.5-13.7-8.9-3.7-9.1s6.8,6.4,3.7,9.1Z"/>
  <path class="st1" d="M615.6,400.5c-2.5-1.7-1.6-8.4,2.9-8.9,10.6-1.2,4.9,14.4-2.9,8.9Z"/>
  <path class="st1" d="M666.9,437.4v7.9c-12.2,5.4-12.2-13.3,0-7.9Z"/>
  <path class="st1" d="M720.9,465.6c4.9-1.4,9.5,5.2,5,8.6-7.9,5.9-11-6.9-5-8.6Z"/>
  <path class="st1" d="M279,460.8c-2.8-17.4,14.2-9,7.7-1.2s-5.3,1-7.7,1.2Z"/>
  <path class="st1" d="M302.3,466.8l-1.1,9.1-6.7-1.4c-3.7-6.5,1.3-11.1,7.8-7.8h0Z"/>
  <path class="st1" d="M271.6,445.2c-4.9,5.1-12.2-5.2-5.6-8.6s9.4,4.6,5.6,8.6Z"/>
  <path class="st1" d="M693.6,405.8c5.1.4,5.9,12.5-1,11.3-6.3-1.2-4.7-11.7,1-11.3Z"/>
  <path class="st1" d="M588,391.5c7.2-2,9.4,10.3.9,9.9s-5.4-8.7-.9-9.9Z"/>
  <path class="st0" d="M428.3,632.5c-2.5,1-3.1,5.5-3.4,7.8-.8,7.1,0,15.1,2.8,21.6s4.2,5.8,5.3,9.4c-34.1-15.8-16.8-55,1.8-76.5,14.8-17.1,42.4-37.8,53.2-4.9,6.8,20.7,2,50.6-16.2,64.2-20,15-42.6,2.2-43.4-21.7h0Z"/>
  <path class="st0" d="M594.2,668.9c6.5-11,6-23.2,3.5-35.3-1.7-2.2-2,.3-2.3,1.8-6,34.5-43.2,30.2-56.3,2.2-6.7-14.3-8.9-58.3,9.3-64.5,20.6-7,49.1,29.4,56.2,46,7,16.3,9.3,42.1-10.4,49.8Z"/>
  <path class="st0" d="M564.8,674.8c-2.3,4.4-10.4,1.9-14.1.5s-8.7-5.8-11.8-10c8.3,3.9,16.5,8.7,25.9,9.4h0Z"/>
  <path class="st0" d="M458.9,677.1l23.5-10.6c-3.1,9.1-15,11.4-23.5,10.6Z"/>
</svg>